<svg width="150" height="71.693" version="1.1" viewBox="0 0 39.687 18.968" xmlns="http://www.w3.org/2000/svg">
 <g transform="translate(-87.122 -129.41)">
  <path d="m90.143 129.41h12.927c1.6735 0 3.0207 1.3472 3.0207 3.0207v12.927c0 1.6735-1.3472 3.0207-3.0207 3.0207h-12.927c-1.6735 0-3.0207-1.3472-3.0207-3.0207v-12.927c0-1.6735 1.3472-3.0207 3.0207-3.0207z" fill="#0ff" stop-color="#000000" style="paint-order:markers fill stroke"/>
  <path d="m121.11 130.88c-0.61826 0-1.0774 0.20985-1.3778 0.62939-0.29588 0.41512-0.44387 1.0023-0.44387 1.7619 0 0.75959 0.14799 1.3492 0.44387 1.7687 0.30031 0.41512 0.7595 0.62307 1.3778 0.62307 0.23848 0 0.44833-0.0309 0.62939-0.0928 0.18548-0.0618 0.34441-0.15033 0.4769-0.26516 0.13248-0.11923 0.24099-0.26056 0.32489-0.42396 0.0883-0.1634 0.15684-0.3466 0.20543-0.54974l-0.92757-0.22534c-0.0486 0.22081-0.12615 0.40211-0.23214 0.54342-0.10157 0.14133-0.26716 0.21175-0.49681 0.21175-0.26938 0-0.46115-0.10374-0.57597-0.3113-0.1104-0.21197-0.1656-0.50367-0.1656-0.87463v-0.80811c0-0.37096 0.0552-0.66027 0.1656-0.86783 0.11482-0.21198 0.30659-0.31761 0.57597-0.31761 0.11483 0 0.21238 0.0194 0.29187 0.0592 0.0839 0.0353 0.15195 0.0863 0.20494 0.15249 0.0574 0.0663 0.10405 0.14571 0.13938 0.23845 0.0353 0.0928 0.0662 0.19458 0.0928 0.30499l0.92757-0.22534c-0.0486-0.20314-0.11711-0.38635-0.20543-0.54975-0.0839-0.1634-0.19241-0.30282-0.32489-0.41764-0.13249-0.11483-0.29142-0.20286-0.4769-0.26467-0.18106-0.0663-0.39091-0.0996-0.62939-0.0996zm-13.513 0.0796v4.6238h0.98051v-1.7158h0.45699l0.77507 1.7158h1.0864l-0.90766-1.8484c0.26056-0.0751 0.46136-0.22973 0.60269-0.46378 0.14131-0.23406 0.21222-0.51433 0.21222-0.84113 0-0.22523-0.0309-0.42841-0.0928-0.60948-0.0618-0.18107-0.15462-0.33572-0.27828-0.46378-0.11923-0.12808-0.26722-0.22515-0.44387-0.29139-0.17665-0.0707-0.37745-0.10587-0.60268-0.10587zm4.0012 0v4.6238h2.9542v-0.81491h-1.9605v-1.1194h1.8945v-0.8149h-1.8945v-1.0597h1.9605v-0.81491zm4.7296 0-1.252 4.6238h1.0067l0.28508-1.1131h1.2651l0.29138 1.1131h1.0602l-1.252-4.6238zm6.8232 0v0.81491h1.3311v3.8089h0.99362v-3.8089h1.3316v-0.81491zm-14.574 0.80131h0.56965c0.23406 0 0.39538 0.0443 0.4837 0.13257 0.0928 0.0883 0.1389 0.23393 0.1389 0.43709v0.19911c0 0.20314-0.0461 0.34874-0.1389 0.43707-0.0883 0.0883-0.24964 0.13258-0.4837 0.13258h-0.56965zm8.3996 0.15929h0.0529l0.45019 1.7488h-0.9538zm-24.487 0.1418c-0.60934 0-1.0511 0.14203-1.3253 0.42639-0.27421 0.28436-0.41134 0.65119-0.41134 1.098v0.76051c0 0.26405 0.02598 0.49815 0.07673 0.70127 0.0609 0.19297 0.13096 0.36536 0.21222 0.5177 0.08129 0.15233 0.17282 0.28946 0.27439 0.41133 0.10162 0.12186 0.19902 0.23892 0.29041 0.35063 0.17265 0.20312 0.28823 0.3809 0.34917 0.53324 0.07105 0.14218 0.10733 0.29449 0.10733 0.45698 0 0.60935-0.58917 0.91398-1.7672 0.91398h-1.3248v1.3399h1.3248c1.1781 0 1.7672 0.30463 1.7672 0.91397 0 0.16249-0.03619 0.32067-0.10733 0.47301-0.0609 0.14218-0.17653 0.31459-0.34917 0.51769-0.09144 0.11172-0.18886 0.22876-0.29041 0.35063-0.10162 0.12188-0.19313 0.25901-0.27439 0.41135-0.08129 0.15233-0.1513 0.33011-0.21222 0.53323-0.05075 0.19295-0.07673 0.42167-0.07673 0.68572v0.76197c0 0.44685 0.13713 0.81221 0.41134 1.0966 0.2742 0.28437 0.71597 0.42591 1.3253 0.42591h2.6958v-1.3399h-2.8478v-0.85327c0-0.39607 0.06072-0.7007 0.1826-0.91398 0.12183-0.21327 0.2639-0.42189 0.42639-0.62501 0.17265-0.21327 0.33524-0.4415 0.48758-0.68524 0.15233-0.24374 0.22874-0.52829 0.22874-0.85327 0-0.42654-0.1479-0.76643-0.44242-1.0203-0.29452-0.26405-0.73137-0.43154-1.3103-0.50264v-0.0913c0.57889-0.0711 1.0157-0.23417 1.3103-0.48807 0.29452-0.26405 0.44242-0.60932 0.44242-1.0359 0-0.32499-0.0765-0.60954-0.22874-0.85328-0.15235-0.24373-0.31494-0.47245-0.48758-0.68572-0.16249-0.20312-0.30451-0.41175-0.42639-0.62501-0.12184-0.21328-0.1826-0.51742-0.1826-0.9135v-0.8523h2.8478v-1.3413zm5.5329 0v1.3413h2.8492v0.85229c0 0.39608-0.0612 0.70023-0.18309 0.9135-0.12187 0.21327-0.26487 0.4219-0.42735 0.62501-0.17265 0.21328-0.33428 0.44199-0.48661 0.68572-0.15234 0.24375-0.22826 0.52829-0.22826 0.85328 0 0.42654 0.14645 0.76741 0.44096 1.0213 0.29451 0.26405 0.73137 0.43155 1.3103 0.50263v0.0913c-0.57889 0.0711-1.0157 0.23272-1.3103 0.48661-0.29452 0.26405-0.44096 0.60982-0.44096 1.0364 0 0.32497 0.07594 0.60952 0.22826 0.85326 0.15233 0.24375 0.31396 0.47197 0.48661 0.68524 0.16248 0.20312 0.30548 0.41174 0.42735 0.62502 0.12188 0.21327 0.18309 0.51789 0.18309 0.91397v0.85327h-2.8492v1.3399h2.6958c0.60935 0 1.0521-0.14154 1.3263-0.42591 0.27421-0.28435 0.41133-0.64971 0.41133-1.0966v-0.76197c0-0.26405-0.0255-0.49864-0.0762-0.70175-0.061-0.19296-0.13244-0.36486-0.21368-0.5172-0.0812-0.15234-0.17283-0.28947-0.27439-0.41134s-0.19755-0.23892-0.28895-0.35064c-0.17265-0.20311-0.2897-0.37992-0.35064-0.53225-0.0711-0.14218-0.10635-0.29596-0.10635-0.45845 0-0.60934 0.58918-0.91397 1.7672-0.91397h1.3253v-1.3399h-1.3253c-1.1781 0-1.7672-0.30463-1.7672-0.91397 0-0.1625 0.0352-0.32068 0.10635-0.47301 0.0609-0.14219 0.17799-0.3141 0.35064-0.51721 0.0914-0.11172 0.1874-0.22877 0.28895-0.35064s0.19314-0.259 0.27439-0.41133c0.0812-0.15234 0.15274-0.33061 0.21368-0.53372 0.0508-0.19297 0.0762-0.42119 0.0762-0.68524v-0.761c0-0.44685-0.13713-0.81319-0.41133-1.0975-0.27421-0.28436-0.71693-0.42639-1.3263-0.42639zm15.099 4.4485c-0.52554 0-0.9338 0.12373-1.2253 0.37103-0.29147 0.2429-0.43756 0.58741-0.43756 1.0334 0 0.34005 0.0928 0.62936 0.27827 0.86784 0.18548 0.23406 0.48573 0.38633 0.90086 0.45699l0.4837 0.0797c0.22523 0.0353 0.38415 0.0948 0.47689 0.17872 0.0972 0.0839 0.1457 0.20763 0.1457 0.37103 0 0.19872-0.0618 0.351-0.18552 0.45699-0.12365 0.10598-0.30447 0.15928-0.54294 0.15928-0.20757 0-0.41313-0.0443-0.61628-0.13258-0.19872-0.0883-0.38192-0.22536-0.54974-0.41085l-0.57645 0.6362c0.17665 0.22081 0.40886 0.39496 0.69591 0.52302 0.28706 0.12808 0.62491 0.19232 1.0135 0.19232 0.29146 0 0.54508-0.0376 0.76148-0.11267 0.22081-0.0751 0.40639-0.1788 0.55655-0.3113 0.15014-0.1369 0.26292-0.29583 0.338-0.4769 0.0751-0.18547 0.11267-0.38676 0.11267-0.60316 0-0.36654-0.10184-0.65775-0.30499-0.87415-0.20314-0.2164-0.49245-0.35772-0.86783-0.42396l-0.48322-0.086c-0.22523-0.0397-0.38892-0.0997-0.49049-0.1792-0.0972-0.0795-0.14569-0.19845-0.14569-0.35743 0-0.36655 0.22317-0.54975 0.6692-0.54975 0.21198 0 0.40185 0.0395 0.56966 0.11899 0.16782 0.0751 0.31343 0.18119 0.43708 0.31808l0.56286-0.62938c-0.16341-0.1899-0.37753-0.34027-0.64251-0.45068-0.26497-0.1104-0.57617-0.1656-0.93388-0.1656zm3.9084 0c-0.61826 0-1.0756 0.20986-1.3714 0.62939-0.29147 0.41954-0.43707 1.0072-0.43707 1.7624s0.1456 1.3424 0.43707 1.7619c0.29589 0.41954 0.75318 0.62939 1.3714 0.62939 0.61828 0 1.0732-0.20985 1.3646-0.62939 0.29589-0.41954 0.44388-1.0067 0.44388-1.7619s-0.14799-1.3428-0.44388-1.7624c-0.29146-0.41953-0.74637-0.62939-1.3646-0.62939zm-9.0819 0.0797v0.8149h1.5234v2.418c0 0.22523-0.0485 0.39273-0.14569 0.50314-0.0928 0.10598-0.22312 0.15928-0.39094 0.15928-0.19873 0-0.34861-0.0618-0.45019-0.18551-0.0972-0.12366-0.1633-0.28497-0.19863-0.4837l-0.94068 0.19232c0.0707 0.38421 0.23387 0.6954 0.49001 0.93388 0.26055 0.23406 0.62696 0.35112 1.0995 0.35112 0.23406 0 0.44629-0.0309 0.63618-0.0928 0.18991-0.0662 0.35122-0.15904 0.4837-0.27827 0.13691-0.11924 0.24064-0.26295 0.3113-0.43077 0.0751-0.17223 0.11266-0.36208 0.11266-0.56965v-3.332zm11.473 0v4.6238h0.84793v-3.0736h0.0728l1.0534 3.0736h1.1922v-4.6238h-0.84793v3.0736h-0.0728l-1.0534-3.0736zm-2.3913 0.72214c0.28264 0 0.47678 0.10612 0.58277 0.31809 0.11042 0.20757 0.16561 0.49688 0.16561 0.86784v0.80131c0 0.37538-0.0552 0.66897-0.16561 0.88095-0.10599 0.20756-0.30013 0.31129-0.58277 0.31129-0.28263 0-0.47915-0.10373-0.58956-0.31129-0.10599-0.21198-0.1588-0.50319-0.1588-0.87416v-0.8081c0-0.37096 0.0528-0.66027 0.1588-0.86784 0.11041-0.21197 0.30693-0.31809 0.58956-0.31809zm-3.9745 4.8292c-0.61827 0-1.0756 0.20984-1.3714 0.62938-0.29147 0.41955-0.43708 1.0067-0.43708 1.7619s0.14561 1.3424 0.43708 1.7619c0.29588 0.41953 0.75317 0.62939 1.3714 0.62939 0.61828 0 1.0732-0.20986 1.3646-0.62939 0.29588-0.41954 0.44339-1.0067 0.44339-1.7619s-0.14751-1.3424-0.44339-1.7619c-0.29147-0.41954-0.74637-0.62938-1.3646-0.62938zm-5.4319 0.0796v4.6238h0.99362v-1.9343h1.8547v-0.81491h-1.8547v-1.0602h2.0732v-0.81441zm7.9222 0v4.6238h0.98051v-1.7158h0.45699l0.77508 1.7158h1.0864l-0.90717-1.8483c0.26056-0.0751 0.46136-0.22973 0.60268-0.46379s0.21174-0.51433 0.21174-0.84113c0-0.22523-0.0309-0.42841-0.0928-0.60948-0.0618-0.18106-0.15413-0.33571-0.27779-0.46379-0.11924-0.12806-0.26723-0.22513-0.44388-0.29138-0.17664-0.0707-0.37793-0.10586-0.60316-0.10586zm3.7297 0v4.6238h0.86104v-2.0606l-0.0529-1.2918h0.0598l0.86105 2.3782 0.86104-2.3782h0.0598l-0.0529 1.2918v2.0606h0.86103v-4.6238h-1.0927l-0.56965 1.5565h-0.0534l-0.56966-1.5565zm-6.2201 0.72166c0.28264 0 0.47678 0.10611 0.58277 0.31809 0.11041 0.20756 0.1656 0.49687 0.1656 0.86784v0.8013c0 0.37538-0.0552 0.66946-0.1656 0.88144-0.10599 0.20756-0.30013 0.31129-0.58277 0.31129s-0.47916-0.10373-0.58957-0.31129c-0.10599-0.21198-0.15928-0.50368-0.15928-0.87464v-0.8081c0-0.37097 0.0533-0.66028 0.15928-0.86784 0.11041-0.21198 0.30693-0.31809 0.58957-0.31809zm3.4709 0.0797h0.56966c0.23405 0 0.39537 0.0443 0.4837 0.13257 0.0928 0.0883 0.13889 0.23393 0.13889 0.43709v0.19862c0 0.20314-0.0461 0.34923-0.13889 0.43756-0.0883 0.0883-0.24965 0.1321-0.4837 0.1321h-0.56966z" stroke-width=".87525"/>
 </g>
</svg>
